<svg height="512pt" viewBox="0 0 512 512" width="512pt" xmlns="http://www.w3.org/2000/svg"><path d="m256 246c-5.519531 0-10 4.480469-10 10s4.480469 10 10 10 10-4.480469 10-10-4.480469-10-10-10zm0 0"/><path d="m356 246h-30.726562c-4.398438-30.609375-28.664063-54.875-59.273438-59.273438v-30.726562c0-5.523438-4.476562-10-10-10s-10 4.476562-10 10v30.726562c-30.609375 4.398438-54.875 28.664063-59.273438 59.273438h-30.726562c-5.523438 0-10 4.476562-10 10s4.476562 10 10 10h30.726562c4.398438 30.609375 28.664063 54.875 59.273438 59.273438v30.726562c0 5.523438 4.476562 10 10 10s10-4.476562 10-10v-30.726562c30.609375-4.398438 54.875-28.664063 59.273438-59.273438h30.726562c5.523438 0 10-4.476562 10-10s-4.476562-10-10-10zm-90 58.992188v-8.992188c0-5.523438-4.476562-10-10-10s-10 4.476562-10 10v8.992188c-19.5625-3.984376-35.007812-19.429688-38.992188-38.992188h8.992188c5.523438 0 10-4.476562 10-10s-4.476562-10-10-10h-8.992188c3.984376-19.5625 19.429688-35.007812 38.992188-38.992188v8.992188c0 5.523438 4.476562 10 10 10s10-4.476562 10-10v-8.992188c19.5625 3.984376 35.007812 19.429688 38.992188 38.992188h-8.992188c-5.523438 0-10 4.476562-10 10s4.476562 9.988281 10 9.988281h8.992188c-3.984376 19.5625-19.429688 35.019531-38.992188 39.003907zm0 0"/><path d="m502 246h-36.242188c-5.082031-107.855469-91.902343-194.675781-199.757812-199.757812v-36.242188c0-5.523438-4.476562-10-10-10s-10 4.476562-10 10v36.242188c-107.855469 5.082031-194.675781 91.902343-199.757812 199.757812h-36.242188c-5.523438 0-10 4.476562-10 10s4.476562 10 10 10h36.242188c5.082031 107.855469 91.902343 194.675781 199.757812 199.757812v36.242188c0 5.523438 4.476562 10 10 10s10-4.476562 10-10v-36.242188c107.855469-5.082031 194.675781-91.902343 199.757812-199.757812h36.242188c5.523438 0 10-4.476562 10-10s-4.476562-10-10-10zm-56.261719 0h-20.039062c-5.003907-85.789062-73.910157-154.695312-159.699219-159.699219v-20.039062c96.824219 5.046875 174.691406 82.914062 179.738281 179.738281zm-49.738281 19.988281h9.660156c-4.945312 74.757813-64.902344 134.726563-139.660156 139.671875v-9.660156c0-5.523438-4.476562-10-10-10s-10 4.476562-10 10v9.660156c-74.757812-4.945312-134.714844-64.902344-139.660156-139.660156h9.660156c5.523438 0 10-4.476562 10-10s-4.476562-10-10-10h-9.660156c4.945312-74.757812 64.902344-134.714844 139.660156-139.660156v9.660156c0 5.523438 4.476562 10 10 10s10-4.476562 10-10v-9.660156c74.757812 4.945312 134.714844 64.902344 139.660156 139.660156h-9.660156c-5.523438 0-10 4.476562-10 10s4.476562 9.988281 10 9.988281zm-150-199.726562v20.039062c-85.789062 5.003907-154.695312 73.910157-159.699219 159.699219h-20.039062c5.046875-96.824219 82.914062-174.691406 179.738281-179.738281zm-179.738281 199.738281h20.039062c5.003907 85.789062 73.910157 154.695312 159.699219 159.699219v20.039062c-96.824219-5.046875-174.691406-82.914062-179.738281-179.738281zm199.738281 179.738281v-20.039062c85.789062-5.003907 154.695312-73.917969 159.699219-159.710938h20.039062c-5.046875 96.824219-82.914062 174.703125-179.738281 179.75zm0 0"/></svg>