<?xml version="1.0" encoding="iso-8859-1"?>
<!-- Generator: Adobe Illustrator 19.0.0, SVG Export Plug-In . SVG Version: 6.00 Build 0)  -->
<svg version="1.1" id="Capa_1" xmlns="http://www.w3.org/2000/svg" xmlns:xlink="http://www.w3.org/1999/xlink" x="0px" y="0px"
	 viewBox="0 0 512 512" style="enable-background:new 0 0 512 512;" xml:space="preserve">
<g>
	<g>
		<path d="M10.188,179.799H10c-5.522,0-10,4.478-10,10c0,5.522,4.478,10,10,10h0.188c5.522,0,10-4.478,10-10
			C20.188,184.277,15.71,179.799,10.188,179.799z"/>
	</g>
</g>
<g>
	<g>
		<path d="M509.071,248.903L335.146,74.977c-2.86-2.859-7.16-3.714-10.897-2.168c-3.736,1.548-6.173,5.193-6.174,9.237
			l-0.022,149.881l-156.95-156.95c-2.86-2.859-7.16-3.714-10.897-2.168c-3.736,1.548-6.173,5.193-6.174,9.238l-0.014,97.752H45.667
			c-5.522,0-10,4.478-10,10c0,5.522,4.478,10,10,10h108.349c5.522,0,9.999-4.477,10-9.999l0.012-83.613l149.787,149.788
			L163.983,405.806l0.012-83.604c0-2.652-1.053-5.196-2.929-7.071c-1.875-1.876-4.419-2.93-7.071-2.93H10c-5.522,0-10,4.478-10,10
			c0,5.522,4.478,10,10,10h133.994l-0.015,97.749c-0.001,4.044,2.436,7.691,6.173,9.239c1.237,0.513,2.536,0.762,3.825,0.762
			c2.603,0,5.16-1.016,7.073-2.929l156.994-156.993l-0.022,149.921c-0.001,4.045,2.436,7.692,6.173,9.24
			c1.237,0.513,2.536,0.762,3.825,0.762c2.602,0,5.16-1.016,7.073-2.929l173.978-173.978
			C512.977,259.141,512.977,252.809,509.071,248.903z M476.487,267.345l-47.146-47.146c-3.906-3.904-10.236-3.904-14.143,0
			c-3.905,3.905-3.905,10.237,0,14.143l47.146,47.146L338.026,405.807l0.044-299.62l149.787,149.788L476.487,267.345z"/>
	</g>
</g>
<g>
	<g>
		<path d="M406.341,197.197l-0.092-0.092c-3.907-3.904-10.237-3.904-14.143,0c-3.905,3.906-3.905,10.238,0,14.143l0.092,0.092
			c1.953,1.952,4.511,2.929,7.071,2.929c2.559,0,5.118-0.977,7.072-2.929C410.246,207.434,410.246,201.102,406.341,197.197z"/>
	</g>
</g>
<g>
</g>
<g>
</g>
<g>
</g>
<g>
</g>
<g>
</g>
<g>
</g>
<g>
</g>
<g>
</g>
<g>
</g>
<g>
</g>
<g>
</g>
<g>
</g>
<g>
</g>
<g>
</g>
<g>
</g>
</svg>
