<?xml version="1.0" encoding="iso-8859-1"?>
<!-- Generator: Adobe Illustrator 19.0.0, SVG Export Plug-In . SVG Version: 6.00 Build 0)  -->
<svg version="1.1" id="Capa_1" xmlns="http://www.w3.org/2000/svg" xmlns:xlink="http://www.w3.org/1999/xlink" x="0px" y="0px"
	 viewBox="0 0 480 480" style="enable-background:new 0 0 480 480;" xml:space="preserve">
<g>
	<path style="fill:#D45B5B;" d="M372.274,263.568c0.504-0.248,0.992-0.512,1.496-0.768
		C373.266,263.056,372.77,263.32,372.274,263.568z"/>
	<path style="fill:#D45B5B;" d="M378.242,260.352c0.376-0.224,0.736-0.472,1.104-0.696
		C378.978,259.888,378.61,260.128,378.242,260.352z"/>
	<path style="fill:#D45B5B;" d="M366.146,266.248c0.552-0.216,1.104-0.44,1.656-0.672
		C367.258,265.808,366.706,266.032,366.146,266.248z"/>
	<path style="fill:#D45B5B;" d="M347.874,271.08c0.288-0.04,0.568-0.064,0.856-0.112C348.45,271.016,348.162,271.04,347.874,271.08z
		"/>
	<path style="fill:#D45B5B;" d="M292.658,259.656c0.368,0.232,0.736,0.472,1.104,0.696
		C293.394,260.128,293.026,259.888,292.658,259.656z"/>
	<path style="fill:#D45B5B;" d="M316.77,269.68c0.496,0.12,0.992,0.216,1.488,0.32C317.77,269.896,317.266,269.8,316.77,269.68z"/>
	<path style="fill:#D45B5B;" d="M323.274,270.968c0.288,0.04,0.568,0.072,0.856,0.112
		C323.842,271.04,323.554,271.016,323.274,270.968z"/>
	<path style="fill:#D45B5B;" d="M353.738,270.008c0.496-0.112,0.992-0.208,1.488-0.32
		C354.738,269.8,354.234,269.896,353.738,270.008z"/>
	<path style="fill:#D45B5B;" d="M304.202,265.576c0.552,0.232,1.104,0.456,1.656,0.672
		C305.298,266.032,304.746,265.808,304.202,265.576z"/>
	<path style="fill:#D45B5B;" d="M359.938,268.392c0.56-0.168,1.12-0.336,1.672-0.512C361.05,268.056,360.49,268.224,359.938,268.392
		z"/>
	<path style="fill:#D45B5B;" d="M298.242,262.8c0.496,0.256,0.992,0.52,1.496,0.768C299.234,263.32,298.738,263.056,298.242,262.8z"
		/>
	<path style="fill:#D45B5B;" d="M310.394,267.88c0.552,0.184,1.112,0.344,1.672,0.512
		C311.514,268.224,310.954,268.056,310.394,267.88z"/>
	<path style="fill:#D45B5B;" d="M264.002,64v32h18.352c1.112,3.72,2.568,7.288,4.384,10.64l-12.96,12.96l22.624,22.624l12.96-12.96
		c3.352,1.816,6.92,3.272,10.64,4.384V152h32v-18.352c3.72-1.112,7.288-2.568,10.64-4.384l12.96,12.96l22.624-22.624l-12.96-12.96
		c1.816-3.352,3.272-6.92,4.384-10.64h18.352V64H389.65c-1.112-3.72-2.568-7.288-4.384-10.64l12.96-12.96l-22.624-22.624
		l-12.96,12.96c-3.352-1.816-6.92-3.28-10.64-4.384V8h-32v18.352c-3.72,1.104-7.288,2.568-10.64,4.384l-12.96-12.96L273.778,40.4
		l12.96,12.96c-1.816,3.352-3.272,6.92-4.384,10.64H264.002z M336.002,48c17.672,0,32,14.328,32,32s-14.328,32-32,32
		s-32-14.328-32-32S318.33,48,336.002,48z"/>
</g>
<circle style="fill:#B3D5E4;" cx="336.002" cy="80" r="32"/>
<g>
	<polygon style="fill:#D45B5B;" points="288.002,312 288.002,296 216.002,320 200.002,472 288.002,472 288.002,352 	"/>
	<polygon style="fill:#D45B5B;" points="384.002,296 384.002,312 384.002,352 384.002,472 472.002,472 456.002,320 	"/>
</g>
<g>
	<polygon style="fill:#B3D5E4;" points="288.002,352 336.002,336 288.002,312 	"/>
	<polygon style="fill:#B3D5E4;" points="384.002,352 384.002,312 336.002,336 	"/>
</g>
<g>
	<path style="fill:#D45B5B;" d="M299.73,263.568c1.472,0.72,2.96,1.384,4.464,2.008C302.698,264.952,301.202,264.288,299.73,263.568
		z"/>
	<path style="fill:#D45B5B;" d="M293.762,260.352c1.472,0.872,2.96,1.672,4.472,2.448
		C296.73,262.024,295.234,261.224,293.762,260.352z"/>
	<path style="fill:#D45B5B;" d="M288.002,256.608L288.002,256.608c1.52,1.088,3.08,2.08,4.656,3.048
		C291.082,258.688,289.522,257.688,288.002,256.608z"/>
	<path style="fill:#D45B5B;" d="M355.234,269.68c1.584-0.376,3.144-0.816,4.704-1.288
		C358.378,268.864,356.81,269.304,355.234,269.68z"/>
	<path style="fill:#D45B5B;" d="M361.61,267.88c1.528-0.496,3.04-1.04,4.544-1.632C364.65,266.832,363.13,267.384,361.61,267.88z"/>
	<path style="fill:#D45B5B;" d="M347.874,271.08c-7.872,1.136-15.872,1.136-23.744,0
		C332.002,272.224,340.002,272.224,347.874,271.08z"/>
	<path style="fill:#D45B5B;" d="M384.002,256.608c-1.52,1.088-3.08,2.08-4.656,3.048
		C380.922,258.688,382.482,257.688,384.002,256.608L384.002,256.608z"/>
	<path style="fill:#D45B5B;" d="M348.73,270.968c1.68-0.264,3.344-0.6,5.008-0.968C352.074,270.368,350.41,270.712,348.73,270.968z"
		/>
	<path style="fill:#D45B5B;" d="M367.802,265.576c1.504-0.624,2.992-1.288,4.464-2.008
		C370.802,264.288,369.306,264.952,367.802,265.576z"/>
	<path style="fill:#D45B5B;" d="M373.762,262.8c1.512-0.776,3-1.576,4.472-2.448C376.77,261.224,375.274,262.024,373.762,262.8z"/>
</g>
<path style="fill:#FFFFFF;" d="M336.002,336l48-24v-16v-39.392c-1.52,1.088-3.08,2.08-4.656,3.048
	c-0.368,0.232-0.736,0.472-1.104,0.696c-1.472,0.872-2.96,1.672-4.472,2.448c-0.496,0.256-0.992,0.52-1.496,0.768
	c-1.472,0.72-2.96,1.384-4.464,2.008c-0.552,0.232-1.104,0.456-1.656,0.672c-1.504,0.584-3.016,1.136-4.544,1.632
	c-0.552,0.184-1.112,0.344-1.672,0.512c-1.56,0.472-3.128,0.912-4.704,1.288c-0.496,0.12-0.992,0.216-1.488,0.32
	c-1.664,0.368-3.328,0.704-5.008,0.968c-0.288,0.04-0.568,0.072-0.856,0.112c-7.88,1.136-15.872,1.136-23.744,0
	c-0.288-0.04-0.568-0.064-0.856-0.112c-1.68-0.264-3.344-0.6-5.008-0.968c-0.496-0.112-0.992-0.208-1.488-0.32
	c-1.584-0.376-3.144-0.816-4.704-1.288c-0.56-0.168-1.12-0.336-1.672-0.512c-1.528-0.496-3.04-1.04-4.544-1.632
	c-0.552-0.216-1.104-0.44-1.656-0.672c-1.504-0.624-2.992-1.288-4.464-2.008c-0.504-0.248-0.992-0.512-1.496-0.768
	c-1.512-0.776-3-1.576-4.472-2.448c-0.376-0.224-0.736-0.472-1.104-0.696c-1.576-0.968-3.136-1.968-4.656-3.048V296v16L336.002,336z
	"/>
<g>
	<path style="fill:#D45B5B;" d="M312.066,268.392c1.56,0.472,3.128,0.912,4.704,1.288
		C315.194,269.304,313.626,268.864,312.066,268.392z"/>
	<path style="fill:#D45B5B;" d="M305.858,266.248c1.504,0.584,3.016,1.136,4.544,1.632
		C308.874,267.384,307.354,266.832,305.858,266.248z"/>
	<path style="fill:#D45B5B;" d="M318.266,270.008c1.664,0.368,3.328,0.704,5.008,0.968
		C321.594,270.712,319.93,270.368,318.266,270.008z"/>
</g>
<g>
	<polygon style="fill:#B3D5E4;" points="336.002,336 360.002,424 336.002,472 384.002,472 384.002,352 	"/>
	<polygon style="fill:#B3D5E4;" points="336.002,336 288.002,352 288.002,472 336.002,472 312.002,424 	"/>
</g>
<g>
	<polygon style="fill:#D45B5B;" points="336.002,336 312.002,424 336.002,472 360.002,424 	"/>
	<path style="fill:#D45B5B;" d="M64.002,154.352c-3.72,1.104-7.288,2.568-10.64,4.384l-12.96-12.96L17.778,168.4l12.96,12.96
		c-1.816,3.352-3.28,6.92-4.384,10.64H8.002v32h18.352c1.112,3.72,2.568,7.288,4.384,10.64l-12.96,12.96l22.624,22.624l12.96-12.96
		c3.352,1.816,6.92,3.272,10.64,4.384V280h32v-18.352c3.72-1.112,7.288-2.568,10.64-4.384l12.96,12.96l22.624-22.624l-12.96-12.96
		c1.816-3.352,3.272-6.92,4.384-10.64h18.352v-32H133.65c-1.112-3.72-2.568-7.288-4.384-10.64l12.96-12.96l-22.624-22.624
		l-12.96,12.96c-3.352-1.816-6.92-3.272-10.64-4.384V136h-32C64.002,136,64.002,154.352,64.002,154.352z M112.002,208
		c0,17.672-14.328,32-32,32s-32-14.328-32-32s14.328-32,32-32S112.002,190.328,112.002,208z"/>
</g>
<circle style="fill:#B3D5E4;" cx="80.002" cy="208" r="32"/>
<path style="fill:#FFFFFF;" d="M432.002,160h-192c0,0,8,112,96,112S432.002,160,432.002,160z"/>
<g>
	<path style="fill:#23374E;" d="M336.002,120c22.056,0,40-17.944,40-40s-17.944-40-40-40s-40,17.944-40,40S313.946,120,336.002,120z
		 M336.002,56c13.232,0,24,10.768,24,24s-10.768,24-24,24s-24-10.768-24-24S322.77,56,336.002,56z"/>
	<path style="fill:#23374E;" d="M264.002,56c-4.416,0-8,3.576-8,8v32c0,4.424,3.584,8,8,8h12.672c0.136,0.328,0.264,0.656,0.4,0.984
		l-8.96,8.952c-1.504,1.504-2.344,3.528-2.344,5.656c0,2.12,0.84,4.16,2.344,5.656l22.632,22.632c3,3,8.312,3,11.312,0l8.96-8.96
		c0.328,0.136,0.656,0.272,0.984,0.408V152c0,4.424,3.584,8,8,8h32c4.416,0,8-3.576,8-8v-12.672
		c0.328-0.136,0.656-0.272,0.984-0.408l8.96,8.96c1.504,1.504,3.536,2.344,5.656,2.344s4.16-0.84,5.656-2.344l22.632-22.632
		c1.504-1.504,2.344-3.536,2.344-5.656c0-2.128-0.84-4.16-2.344-5.656l-8.96-8.952c0.136-0.328,0.272-0.656,0.4-0.984h12.672
		c4.416,0,8-3.576,8-8V64c0-4.424-3.584-8-8-8H395.33c-0.136-0.328-0.264-0.656-0.4-0.984l8.96-8.96
		c1.504-1.504,2.344-3.528,2.344-5.656s-0.84-4.16-2.344-5.656L381.258,12.12c-3-3-8.312-3-11.312,0l-8.96,8.96
		c-0.328-0.136-0.656-0.272-0.984-0.408V8c0-4.424-3.584-8-8-8h-32c-4.416,0-8,3.576-8,8v12.672
		c-0.328,0.136-0.656,0.272-0.984,0.408l-8.96-8.96c-1.504-1.504-3.536-2.344-5.656-2.344s-4.16,0.84-5.656,2.344l-22.632,22.624
		c-1.504,1.504-2.344,3.528-2.344,5.656s0.84,4.16,2.344,5.656l8.96,8.96c-0.128,0.328-0.264,0.656-0.4,0.984H264.002z M282.354,72
		c3.536,0,6.664-2.328,7.664-5.72c0.96-3.224,2.216-6.288,3.752-9.112c1.68-3.12,1.128-6.968-1.376-9.472L285.09,40.4l11.32-11.312
		l7.304,7.304c2.512,2.504,6.368,3.064,9.472,1.376c2.792-1.512,5.856-2.776,9.112-3.752c3.376-1.008,5.704-4.128,5.704-7.664V16h16
		v10.352c0,3.536,2.328,6.656,5.712,7.664c3.256,0.976,6.32,2.232,9.112,3.752c3.112,1.688,6.968,1.136,9.472-1.376l7.304-7.304
		l11.32,11.312l-7.304,7.304c-2.504,2.504-3.064,6.352-1.376,9.472c1.528,2.824,2.792,5.88,3.752,9.112
		c1,3.384,4.12,5.712,7.656,5.712h10.352v16H389.65c-3.536,0-6.664,2.328-7.664,5.72c-0.96,3.224-2.216,6.288-3.752,9.112
		c-1.688,3.12-1.128,6.968,1.376,9.472l7.304,7.296l-11.312,11.32l-7.304-7.304c-2.504-2.504-6.352-3.056-9.472-1.376
		c-2.792,1.512-5.856,2.776-9.112,3.752c-3.384,1-5.712,4.12-5.712,7.656V144h-16v-10.352c0-3.536-2.328-6.656-5.712-7.664
		c-3.256-0.976-6.32-2.232-9.112-3.752c-3.112-1.688-6.968-1.136-9.472,1.376l-7.304,7.304l-11.312-11.32l7.304-7.296
		c2.504-2.504,3.064-6.352,1.376-9.472c-1.528-2.824-2.792-5.88-3.752-9.112C289.01,90.328,285.89,88,282.354,88h-10.352V72H282.354
		z"/>
	<path style="fill:#23374E;" d="M234.306,154.384c-1.504,1.52-2.336,3.584-2.304,5.72c0.504,38.376,17.664,75.328,45.896,98.864
		c0.68,0.568,1.408,1.056,2.104,1.6v29.672l-66.528,22.176c-2.976,0.992-5.096,3.624-5.424,6.752l-16,152
		c-0.24,2.248,0.496,4.504,2.008,6.184s3.68,2.648,5.944,2.648h88h96h88c2.264,0,4.432-0.96,5.944-2.648s2.248-3.936,2.008-6.184
		l-16-152c-0.328-3.128-2.448-5.76-5.424-6.752l-66.528-22.176v-29.672c0.696-0.544,1.416-1.032,2.104-1.6
		c28.736-23.952,45.896-60.952,45.896-98.968c0-4.424-3.584-8-8-8h-24v16h15.712c-2.184,30.456-16.736,59.408-39.848,78.672
		c-1.456,1.216-2.968,2.328-4.488,3.416c0,0-0.008,0.008-0.016,0.008c-3.136,2.24-6.416,4.184-9.784,5.88
		c-0.192,0.096-0.384,0.2-0.584,0.296c-3.304,1.624-6.696,2.992-10.152,4.104c-0.24,0.08-0.488,0.152-0.728,0.224
		c-3.504,1.088-7.056,1.928-10.656,2.488c-0.088,0.016-0.184,0.024-0.272,0.032c-7.408,1.12-14.944,1.12-22.352,0
		c-0.088-0.016-0.184-0.024-0.272-0.032c-3.592-0.56-7.152-1.4-10.656-2.488c-0.24-0.072-0.488-0.144-0.728-0.224
		c-3.456-1.112-6.848-2.472-10.152-4.104c-0.192-0.096-0.384-0.2-0.584-0.296c-3.368-1.696-6.648-3.64-9.784-5.88
		c-0.008,0-0.008-0.008-0.016-0.008c-1.52-1.088-3.032-2.2-4.488-3.416c-22.344-18.624-37.144-48.2-39.744-78.672h15.592v-16h-24
		C237.858,152,235.81,152.856,234.306,154.384z M351.482,423.16l-15.48,30.952l-15.48-30.952l15.48-56.752L351.482,423.16z
		 M376.002,340.896l-19.144-6.376l19.144-9.576V340.896z M296.002,340.896v-15.952l19.144,9.576L296.002,340.896z M223.418,325.96
		l56.584-18.856V312v40v112H208.89L223.418,325.96z M296.002,357.768l28.352-9.448l-20.072,73.584c-0.512,1.896-0.32,3.92,0.56,5.68
		L323.058,464h-27.056V357.768z M348.946,464l18.208-36.424c0.88-1.76,1.08-3.784,0.56-5.68l-20.072-73.584l28.36,9.456V464H348.946
		z M448.586,325.96L463.114,464h-71.112V352v-40v-4.896L448.586,325.96z M376.002,270.672V296v11.056l-40,20l-40-20V296v-25.328
		c0.12,0.056,0.24,0.096,0.36,0.152c6.04,2.936,12.32,5.16,18.736,6.68c0.44,0.104,0.88,0.184,1.32,0.288
		c2.808,0.616,5.64,1.104,8.48,1.456c0.456,0.056,0.904,0.128,1.36,0.176c3.24,0.336,6.488,0.576,9.744,0.576
		s6.504-0.24,9.744-0.584c0.456-0.048,0.904-0.12,1.36-0.176c2.848-0.352,5.672-0.832,8.48-1.456c0.44-0.096,0.88-0.184,1.32-0.288
		c6.424-1.52,12.696-3.744,18.736-6.68C375.762,270.768,375.882,270.728,376.002,270.672z"/>
	<path style="fill:#23374E;" d="M80.002,248c22.056,0,40-17.944,40-40s-17.944-40-40-40s-40,17.944-40,40S57.946,248,80.002,248z
		 M80.002,184c13.232,0,24,10.768,24,24s-10.768,24-24,24s-24-10.768-24-24S66.77,184,80.002,184z"/>
	<path style="fill:#23374E;" d="M8.002,232h12.672c0.136,0.328,0.264,0.656,0.4,0.984l-8.96,8.952
		c-1.504,1.504-2.344,3.528-2.344,5.656c0,2.12,0.84,4.16,2.344,5.656l22.632,22.632c3,3,8.312,3,11.312,0l8.96-8.96
		c0.328,0.136,0.656,0.272,0.984,0.408V280c0,4.424,3.584,8,8,8h32c4.416,0,8-3.576,8-8v-12.672
		c0.328-0.136,0.656-0.272,0.984-0.408l8.96,8.96c1.504,1.504,3.536,2.344,5.656,2.344s4.16-0.84,5.656-2.344l22.632-22.632
		c1.504-1.504,2.344-3.536,2.344-5.656c0-2.128-0.84-4.16-2.344-5.656l-8.96-8.952c0.136-0.328,0.272-0.656,0.4-0.984h12.672
		c4.416,0,8-3.576,8-8v-32c0-4.424-3.584-8-8-8H139.33c-0.136-0.328-0.264-0.656-0.4-0.984l8.96-8.96
		c1.504-1.504,2.344-3.528,2.344-5.656s-0.84-4.16-2.344-5.656l-22.632-22.624c-3-3-8.312-3-11.312,0l-8.96,8.96
		c-0.328-0.136-0.656-0.272-0.984-0.408V136c0-4.424-3.584-8-8-8h-32c-4.416,0-8,3.576-8,8v12.672
		c-0.328,0.136-0.656,0.272-0.984,0.408l-8.96-8.96c-1.504-1.504-3.536-2.344-5.656-2.344s-4.16,0.84-5.656,2.344l-22.632,22.624
		c-1.504,1.504-2.344,3.528-2.344,5.656s0.84,4.16,2.344,5.656l8.96,8.96c-0.128,0.328-0.264,0.656-0.4,0.984H8.002
		c-4.416,0-8,3.576-8,8v32C0.002,228.424,3.586,232,8.002,232z M16.002,200h10.352c3.536,0,6.664-2.328,7.664-5.72
		c0.96-3.224,2.216-6.288,3.752-9.112c1.68-3.12,1.128-6.968-1.376-9.472L29.09,168.4l11.32-11.312l7.304,7.304
		c2.504,2.504,6.368,3.064,9.472,1.376c2.792-1.512,5.856-2.776,9.112-3.752c3.376-1.008,5.704-4.128,5.704-7.664V144h16v10.352
		c0,3.536,2.328,6.656,5.712,7.664c3.256,0.976,6.32,2.232,9.112,3.752c3.112,1.68,6.968,1.128,9.472-1.376l7.304-7.304
		l11.32,11.312l-7.304,7.304c-2.504,2.504-3.064,6.352-1.376,9.472c1.528,2.824,2.792,5.88,3.752,9.112
		c1,3.384,4.12,5.712,7.656,5.712h10.352v16H133.65c-3.536,0-6.664,2.328-7.664,5.72c-0.96,3.224-2.216,6.288-3.752,9.112
		c-1.688,3.12-1.128,6.968,1.376,9.472l7.304,7.296l-11.312,11.32l-7.304-7.304c-2.504-2.504-6.352-3.056-9.472-1.376
		c-2.792,1.512-5.856,2.776-9.112,3.752c-3.384,1-5.712,4.12-5.712,7.656V272h-16v-10.352c0-3.536-2.328-6.656-5.712-7.664
		c-3.256-0.976-6.32-2.232-9.112-3.752c-3.112-1.688-6.968-1.128-9.472,1.376l-7.304,7.304l-11.312-11.32l7.304-7.296
		c2.504-2.504,3.064-6.352,1.376-9.472c-1.528-2.824-2.792-5.88-3.752-9.112C33.01,218.328,29.89,216,26.354,216H16.002V200z"/>
	<path style="fill:#23374E;" d="M268.506,264.456l-9.016-13.216C239.57,264.824,216.226,272,192.002,272
		c-10.16,0-20.272-1.272-30.048-3.792l-3.984,15.504c11.08,2.84,22.528,4.288,34.032,4.288
		C219.458,288,245.914,279.856,268.506,264.456z"/>
	<path style="fill:#23374E;" d="M62.778,109.504l15.2,5C94.194,65.16,140.018,32,192.002,32c15.568,0,30.696,2.928,44.976,8.712
		l6.008-14.832C226.794,19.328,209.642,16,192.002,16C133.09,16,81.162,53.576,62.778,109.504z"/>
	<path style="fill:#23374E;" d="M142.474,337.544c5.344,1.432,10.832,2.64,16.312,3.592l2.752-15.768
		c-5.016-0.872-10.04-1.976-14.936-3.28L142.474,337.544z"/>
	<path style="fill:#23374E;" d="M83.442,310.384c4.12,2.84,8.448,5.568,12.848,8.104l7.984-13.856
		c-4.032-2.328-7.984-4.824-11.752-7.416L83.442,310.384z"/>
	<path style="fill:#23374E;" d="M192.002,344v-16c-5.08,0-10.224-0.216-15.296-0.656l-1.376,15.936
		C180.858,343.76,186.474,344,192.002,344z"/>
	<path style="fill:#23374E;" d="M111.106,326.168c5,2.336,10.192,4.48,15.432,6.384l5.464-15.048
		c-4.8-1.736-9.552-3.704-14.136-5.832L111.106,326.168z"/>
	<path style="fill:#23374E;" d="M210.57,56.528l-1.608,15.92c4.376,0.44,8.784,1.224,13.08,2.328l3.976-15.504
		C220.946,57.984,215.746,57.056,210.57,56.528z"/>
	<path style="fill:#23374E;" d="M193.282,56.208c-5.776,0.368-11.536,1.216-17.128,2.528l3.656,15.576
		c4.72-1.112,9.592-1.832,14.488-2.144L193.282,56.208z"/>
	<path style="fill:#23374E;" d="M144.346,72.136l8.568,13.512c4.136-2.624,8.496-4.904,12.968-6.792l-6.192-14.752
		C154.394,66.336,149.234,69.032,144.346,72.136z"/>
	<path style="fill:#23374E;" d="M141.242,94.488l-10.696-11.904c-4.288,3.856-8.28,8.096-11.872,12.584l12.504,9.984
		C134.226,101.336,137.61,97.752,141.242,94.488z"/>
	<path style="fill:#23374E;" d="M101.922,125.336l15.088,5.328c1.616-4.576,3.648-9.072,6.016-13.352l-13.992-7.768
		C106.234,114.608,103.834,119.92,101.922,125.336z"/>
</g>
<g>
</g>
<g>
</g>
<g>
</g>
<g>
</g>
<g>
</g>
<g>
</g>
<g>
</g>
<g>
</g>
<g>
</g>
<g>
</g>
<g>
</g>
<g>
</g>
<g>
</g>
<g>
</g>
<g>
</g>
</svg>
