<?xml version="1.0" encoding="iso-8859-1"?>
<!-- Generator: Adobe Illustrator 19.0.0, SVG Export Plug-In . SVG Version: 6.00 Build 0)  -->
<svg version="1.1" id="Capa_1" xmlns="http://www.w3.org/2000/svg" xmlns:xlink="http://www.w3.org/1999/xlink" x="0px" y="0px"
	 viewBox="0 0 512 512" style="enable-background:new 0 0 512 512;" xml:space="preserve">
<g>
	<g>
		<path d="M502,10.577H10c-5.523,0-10,4.477-10,10v377.485c0,5.523,4.477,10,10,10h199.595v25.998H180.14
			c-30.143,0-54.666,24.524-54.666,54.667v2.696c0,5.523,4.478,10,10,10h241.053c5.522,0,10-4.477,10-10v-2.696
			c0-30.143-24.523-54.667-54.666-54.667h-29.455v-25.998H502c5.522,0,10-4.477,10-10V20.577C512,15.054,507.522,10.577,502,10.577z
			 M331.86,454.061c16.611-0.001,30.53,11.742,33.892,27.362H146.248c3.362-15.62,17.281-27.362,33.892-27.362H331.86z
			 M229.594,434.06v-25.998h52.811v25.998H229.594z M492,388.063H20v-48.279h472V388.063z M375.646,96.465H62.414V72.991h387.172
			v246.792H62.414V116.465h313.232c5.522,0,10-4.477,10-10C385.646,100.942,381.168,96.465,375.646,96.465z M492,319.784h-22.414
			V62.991c0-5.523-4.478-10-10-10H52.414c-5.522,0-10,4.477-10,10v256.792H20V30.577h472V319.784z"/>
	</g>
</g>
<g>
	<g>
		<path d="M423.381,104.51c-0.131-0.64-0.321-1.27-0.571-1.87c-0.25-0.6-0.56-1.18-0.92-1.73c-0.359-0.54-0.78-1.06-1.24-1.52
			c-0.46-0.46-0.97-0.87-1.52-1.24c-0.54-0.36-1.12-0.67-1.73-0.92c-0.6-0.25-1.23-0.44-1.869-0.57c-3.25-0.65-6.7,0.41-9.021,2.73
			c-0.46,0.46-0.88,0.98-1.25,1.52c-0.36,0.55-0.67,1.13-0.92,1.73c-0.25,0.6-0.44,1.23-0.57,1.87c-0.13,0.65-0.189,1.3-0.189,1.95
			c0,2.64,1.069,5.22,2.93,7.08c1.86,1.86,4.43,2.93,7.07,2.93c0.649,0,1.309-0.07,1.95-0.2c0.64-0.13,1.27-0.32,1.869-0.57
			c0.61-0.25,1.19-0.56,1.73-0.92c0.55-0.36,1.06-0.78,1.52-1.24c1.86-1.86,2.931-4.44,2.931-7.08
			C423.581,105.81,423.511,105.16,423.381,104.51z"/>
	</g>
</g>
<g>
	<g>
		<path d="M393.373,280.773l-93.4-79.494c-3.736-3.18-9.227-3.18-12.963,0l-49.429,42.069l-31.009-26.392
			c-3.736-3.18-9.227-3.18-12.963,0l-74.981,63.817c-3.191,2.716-4.351,7.135-2.903,11.068c1.447,3.933,5.193,6.547,9.385,6.547
			h261.783c4.191,0,7.938-2.614,9.385-6.547C397.724,287.908,396.565,283.49,393.373,280.773z M196.41,278.389h-44.123
			l47.803-40.686l22.062,18.777L196.41,278.389z M227.269,278.389l66.223-56.362l66.222,56.362H227.269z"/>
	</g>
</g>
<g>
	<g>
		<path d="M237.977,131.446c-19.841,0-35.984,16.143-35.984,35.984c0,19.842,16.143,35.985,35.984,35.985
			c19.842,0,35.984-16.143,35.984-35.985S257.818,131.446,237.977,131.446z M237.977,183.414c-8.813,0-15.984-7.171-15.984-15.985
			c0-8.814,7.171-15.984,15.984-15.984c8.814,0,15.984,7.17,15.984,15.984C253.961,176.243,246.79,183.414,237.977,183.414z"/>
	</g>
</g>
<g>
	<g>
		<path d="M269.524,353.923h-27.049c-5.523,0-10,4.477-10,10s4.477,10,10,10h27.049c5.522,0,10-4.477,10-10
			S275.047,353.923,269.524,353.923z"/>
	</g>
</g>
<g>
</g>
<g>
</g>
<g>
</g>
<g>
</g>
<g>
</g>
<g>
</g>
<g>
</g>
<g>
</g>
<g>
</g>
<g>
</g>
<g>
</g>
<g>
</g>
<g>
</g>
<g>
</g>
<g>
</g>
</svg>
