<?xml version="1.0"?>
<svg xmlns="http://www.w3.org/2000/svg" viewBox="0 0 64 64" width="512" height="512"><path d="m13 40h-4v16h4v-1-14z" fill="#74d5e8"/><path d="m51 40v1 14 1h4v-16z" fill="#74d5e8"/><path d="m46 42-10.382-1-2.657 1.974.039.026-.039-.026-3.88 2.884a2.427 2.427 0 1 0 2.692 4.042l3.845-2.9-3.845 2.9a2.427 2.427 0 1 1 -2.692-4.038l3.88-2.884-2.961-1.978-11 1-6-1v14h5l15 6 11-3-.943-.771-10.057-8.229 10.057 8.229 7.943-2.229v-14z" fill="#fff5e0"/><path d="m41 13h4v12h-4z" fill="#7d7d7d"/><path d="m15 17h10v18h-10z" fill="#f0be59"/><path d="m11 5h-2-2v5h4z" fill="#e39d10"/><path d="m9 39h-6v18h6v-1-16z" fill="#10bde0"/><path d="m55 39h6v18h-6z" fill="#10bde0"/><path d="m3 10h12v25h-12z" fill="#e39d10"/><path d="m54 19v4.286l-5-4.286v6h-10v10h22v-10z" fill="#d9d9d9"/><path d="m61 38h-6a1 1 0 0 0 -1 1h-3a1 1 0 0 0 -1 1v.18l-4.051.81-10.236-.99a1 1 0 0 0 -.692.193l-2.091 1.559-2.375-1.584a1 1 0 0 0 -.645-.168l-10.872.989-5.038-.836v-.153a1 1 0 0 0 -1-1h-3a1 1 0 0 0 -1-1h-6a1 1 0 0 0 -1 1v18a1 1 0 0 0 1 1h6a1 1 0 0 0 1-1h3a1 1 0 0 0 1-1h3.808l14.82 5.929a1.008 1.008 0 0 0 .635.036l11-3a.984.984 0 0 0 .694-1.231l5.1-1.432a.989.989 0 0 0 .943.698h3a1 1 0 0 0 1 1h6a1 1 0 0 0 1-1v-18a1 1 0 0 0 -1-1zm-53 18h-4v-16h4zm27.905-13.968 9.995.968a1.027 1.027 0 0 0 .292-.016l3.8-.76v12.018l-6.712 1.883-8.68-7.107 1.619-1.218-1.2-1.6-3.8 2.863a1.426 1.426 0 0 1 -2.211-1.327 1.453 1.453 0 0 1 .67-1.076zm-23.905 12.968h-2v-14h2zm21.06 4.947-14.688-5.876a1.012 1.012 0 0 0 -.372-.071h-4v-11.82l4.835.806a1.04 1.04 0 0 0 .255.01l10.649-.968 1.487.991-2.7 2.007a3.419 3.419 0 0 0 1.889 6.274 3.523 3.523 0 0 0 1.96-.6l.582-.438 8.908 7.288zm18.94-4.947v-14h2v14zm8 1h-4v-16h4z"/><path d="m19.5 55.692h2v7.616h-2z" transform="matrix(.39410232 -.91906657 .91906657 .39410232 -42.264 54.892)"/><path d="m3 36h22a1 1 0 0 0 1-1v-18a1 1 0 0 0 -1-1h-9v-6a1 1 0 0 0 -1-1h-3v-4a1 1 0 0 0 -1-1h-1v-2h-2v2h-1a1 1 0 0 0 -1 1v4h-3a1 1 0 0 0 -1 1v25a1 1 0 0 0 1 1zm21-18v2h-2v2h2v2h-2v2h2v8h-8v-16zm-16-12h2v3h-2zm-4 5h10v23h-10z"/><path d="m6 17h2v2h-2z"/><path d="m10 17h2v2h-2z"/><path d="m6 21h2v2h-2z"/><path d="m10 21h2v2h-2z"/><path d="m6 25h2v2h-2z"/><path d="m18 20h2v2h-2z"/><path d="m18 24h2v2h-2z"/><path d="m6 13h2v2h-2z"/><path d="m10 13h2v2h-2z"/><path d="m43.5 7a3.5 3.5 0 0 0 3.5-3.5v-1.5h-2v1.5a1.5 1.5 0 0 1 -1.5 1.5 3.5 3.5 0 0 0 -3.5 3.5v1.5h2v-1.5a1.5 1.5 0 0 1 1.5-1.5z"/><path d="m54.651 18.241a1 1 0 0 0 -1.651.759v2.111l-3.349-2.87a1 1 0 0 0 -1.651.759v5h-2v-10h1v-2h-.722a1.993 1.993 0 0 1 1.722-1 5.006 5.006 0 0 0 5-5v-2h-2v2a3 3 0 0 1 -3 3 4 4 0 0 0 -3.858 3h-5.142v2h1v10h-1a1 1 0 0 0 -1 1v10a1 1 0 0 0 1 1h22a1 1 0 0 0 1-1v-10a1 1 0 0 0 -.349-.759zm-12.651-4.241h2v10h-2zm18 20h-20v-8h9a1 1 0 0 0 1-1v-3.826l3.349 2.871a1 1 0 0 0 1.651-.759v-2.112l5 4.286z"/><path d="m52 30h2v2h-2z"/><path d="m56 30h2v2h-2z"/><path d="m52 26h2v2h-2z"/><path d="m56 26h2v2h-2z"/><path d="m42 28h2v2h-2z"/><path d="m46 28h2v2h-2z"/><path d="m33 31v-2h2v-2h-2v-2h-2v2h-2v2h2v2z"/></svg>
