<?xml version="1.0" encoding="iso-8859-1"?>
<!-- Generator: Adobe Illustrator 19.0.0, SVG Export Plug-In . SVG Version: 6.00 Build 0)  -->
<svg version="1.1" id="Capa_1" xmlns="http://www.w3.org/2000/svg" xmlns:xlink="http://www.w3.org/1999/xlink" x="0px" y="0px"
	 viewBox="0 0 509.232 509.232" style="enable-background:new 0 0 509.232 509.232;" xml:space="preserve">
<g>
	<g>
		<g>
			<path d="M194.88,250.087l15.36-15.253L129.173,152.7l27.733-27.947c4.066-4.148,4.066-10.786,0-14.933
				c-15.284-15.662-15.284-40.658,0-56.32c14.901-14.304,38.433-14.304,53.333,0c4.119,4.212,10.872,4.288,15.084,0.169
				c0.057-0.056,0.114-0.112,0.169-0.169l27.413-27.413L273.28,47.42c-16.484,24.217-13.723,56.675,6.613,77.76
				c20.186,20.853,52.558,23.887,76.267,7.147l20.267,20.693l-87.68,85.973l14.933,15.253l95.36-94.08
				c4.136-4.16,4.136-10.88,0-15.04l-34.667-35.52c-4.119-4.212-10.872-4.288-15.084-0.169c-0.057,0.056-0.114,0.112-0.169,0.169
				c-14.994,14.788-39.086,14.788-54.08,0c-14.998-15.779-14.762-40.615,0.533-56.107c4.065-4.148,4.065-10.786,0-14.933
				l-35.093-35.2c-4.119-4.212-10.872-4.288-15.084-0.169c-0.057,0.056-0.114,0.112-0.169,0.169l-27.627,28.8
				c-23.709-16.74-56.08-13.707-76.267,7.147c-20.336,21.085-23.097,53.543-6.613,77.76l-28.053,28.16
				c-4.066,4.148-4.066,10.786,0,14.933L194.88,250.087z"/>
			<path d="M508.16,235.367c-2.949-13.396-12.642-24.301-25.6-28.8l-2.133-0.64c-14.708-4.296-30.588-0.203-41.387,10.667
				L296.853,356.86c-3.851,3.838-9.07,5.987-14.507,5.973H273.6c1.493-1.422,2.951-2.951,4.373-4.587
				c13.707-17.167,20.037-39.074,17.6-60.907c-0.749-5.302-5.313-9.226-10.667-9.173H71.573c-2.835-0.016-5.56,1.097-7.573,3.093
				l-64,64l15.04,15.04l60.693-60.8H274.24c-0.197,12.653-4.586,24.883-12.48,34.773c-10.56,12.373-28.053,18.56-51.52,18.56
				c-5.891,0-10.667,4.776-10.667,10.667c0,5.891,4.776,10.667,10.667,10.667h72.427c11.057,0.058,21.685-4.278,29.547-12.053
				l141.76-140.587c5.334-5.244,13.082-7.202,20.267-5.12h1.173c6.261,2.024,10.922,7.298,12.16,13.76
				c1.611,6.929-0.489,14.198-5.547,19.2L318.507,420.86c-3.901,3.761-9.088,5.897-14.507,5.973H156.907
				c-11.057-0.058-21.685,4.278-29.547,12.053l-55.787,55.04l15.04,15.147l55.573-54.933c3.903-3.891,9.209-6.044,14.72-5.973
				h146.987c11.057,0.058,21.685-4.278,29.547-12.053l163.307-161.6C507.106,264.341,511.429,249.513,508.16,235.367z"/>
		</g>
	</g>
</g>
<g>
</g>
<g>
</g>
<g>
</g>
<g>
</g>
<g>
</g>
<g>
</g>
<g>
</g>
<g>
</g>
<g>
</g>
<g>
</g>
<g>
</g>
<g>
</g>
<g>
</g>
<g>
</g>
<g>
</g>
</svg>
