<?xml version="1.0" encoding="iso-8859-1"?>
<!-- Generator: Adobe Illustrator 19.0.0, SVG Export Plug-In . SVG Version: 6.00 Build 0)  -->
<svg version="1.1" id="Layer_1" xmlns="http://www.w3.org/2000/svg" xmlns:xlink="http://www.w3.org/1999/xlink" x="0px" y="0px"
	 viewBox="0 0 504.88 504.88" style="enable-background:new 0 0 504.88 504.88;" xml:space="preserve">
<g>
	<g>
		<g>
			<rect x="188.44" y="60.996" width="16" height="80"/>
			<rect x="300.44" y="60.996" width="16" height="80"/>
			<polygon points="252.44,22.108 336.608,68.02 344.272,53.972 252.44,3.884 160.608,53.972 168.272,68.02 			"/>
			<path d="M164.44,316.996c-22.056,0-40,17.944-40,40c0,22.056,17.944,40,40,40c22.056,0,40-17.944,40-40
				C204.44,334.94,186.496,316.996,164.44,316.996z M164.44,380.996c-13.232,0-24-10.768-24-24s10.768-24,24-24s24,10.768,24,24
				S177.672,380.996,164.44,380.996z"/>
			<path d="M340.44,396.996c22.056,0,40-17.944,40-40c0-22.056-17.944-40-40-40c-22.056,0-40,17.944-40,40
				C300.44,379.052,318.384,396.996,340.44,396.996z M340.44,332.996c13.232,0,24,10.768,24,24s-10.768,24-24,24s-24-10.768-24-24
				S327.208,332.996,340.44,332.996z"/>
			<polygon points="196.44,441.684 196.44,500.996 212.44,500.996 212.44,448.308 252.44,408.308 292.44,448.308 292.44,500.996 
				308.44,500.996 308.44,441.684 252.44,385.684 			"/>
			<path d="M427.472,348.996c-6.576,0-13.008,2.664-17.656,7.312l-46.568,46.568c-14.048-7.736-31.56-7.736-45.608,0l-46.568-46.568
				c-4.656-4.648-11.088-7.312-17.664-7.312h-1.936c-6.576,0-13.008,2.664-17.656,7.312l-46.568,46.568
				c-14.048-7.736-31.56-7.736-45.608,0l-46.568-46.568c-4.656-4.648-11.088-7.312-17.664-7.312
				c-13.768,0-24.968,11.2-24.968,24.968c0,6.576,2.664,13.008,7.312,17.656l56.688,56.688v52.688h16v-59.312l-61.376-61.376
				c-1.672-1.672-2.624-3.984-2.624-6.344c0-4.944,4.024-8.968,8.968-8.968c2.36,0,4.672,0.952,6.344,2.624l56.048,56.048
				l5.544-4.176c11.312-8.504,26.872-8.504,38.184,0l5.544,4.176l56.048-56.048c1.68-1.672,3.992-2.624,6.352-2.624h1.936
				c2.36,0,4.672,0.952,6.344,2.624l56.048,56.048l5.544-4.176c11.312-8.504,26.872-8.504,38.184,0l5.544,4.176l56.048-56.048
				c1.68-1.672,3.992-2.624,6.352-2.624c4.944,0,8.968,4.024,8.968,8.968c0,2.36-0.952,4.672-2.624,6.344l-61.376,61.376v59.312h16
				v-52.688l56.688-56.688c4.648-4.648,7.312-11.08,7.312-17.656C452.44,360.196,441.24,348.996,427.472,348.996z"/>
			<path d="M164.44,228.996c22.056,0,40-17.944,40-40c0-22.056-17.944-40-40-40c-22.056,0-40,17.944-40,40
				C124.44,211.052,142.384,228.996,164.44,228.996z M164.44,164.996c13.232,0,24,10.768,24,24s-10.768,24-24,24s-24-10.768-24-24
				S151.208,164.996,164.44,164.996z"/>
			<path d="M340.44,228.996c22.056,0,40-17.944,40-40c0-22.056-17.944-40-40-40c-22.056,0-40,17.944-40,40
				C300.44,211.052,318.384,228.996,340.44,228.996z M340.44,164.996c13.232,0,24,10.768,24,24s-10.768,24-24,24s-24-10.768-24-24
				S327.208,164.996,340.44,164.996z"/>
			<polygon points="196.44,273.684 196.44,332.996 212.44,332.996 212.44,280.308 252.44,240.308 292.44,280.308 292.44,332.996 
				308.44,332.996 308.44,273.684 252.44,217.684 			"/>
			<path d="M427.472,180.996c-6.576,0-13.008,2.664-17.656,7.312l-46.568,46.568c-14.048-7.736-31.56-7.736-45.608,0l-46.568-46.568
				c-4.656-4.648-11.088-7.312-17.664-7.312h-1.936c-6.576,0-13.008,2.664-17.656,7.312l-46.568,46.568
				c-14.048-7.736-31.56-7.736-45.608,0l-46.568-46.568c-4.656-4.648-11.088-7.312-17.664-7.312
				c-13.768,0-24.968,11.2-24.968,24.968c0,6.576,2.664,13.008,7.312,17.656l56.688,56.688v52.688h16v-59.312l-61.376-61.376
				c-1.672-1.672-2.624-3.984-2.624-6.344c0-4.944,4.024-8.968,8.968-8.968c2.36,0,4.672,0.952,6.344,2.624l56.048,56.048
				l5.544-4.176c11.312-8.504,26.872-8.504,38.184,0l5.544,4.176l56.048-56.048c1.68-1.672,3.992-2.624,6.352-2.624h1.936
				c2.36,0,4.672,0.952,6.344,2.624l56.048,56.048l5.544-4.176c11.312-8.504,26.872-8.504,38.184,0l5.544,4.176l56.048-56.048
				c1.68-1.672,3.992-2.624,6.352-2.624c4.944,0,8.968,4.024,8.968,8.968c0,2.36-0.952,4.672-2.624,6.344l-61.376,61.376v59.312h16
				v-52.688l56.688-56.688c4.648-4.648,7.312-11.08,7.312-17.656C452.44,192.196,441.24,180.996,427.472,180.996z"/>
			<rect x="28.44" y="140.996" width="16" height="160"/>
			<rect x="108.44" y="140.996" width="16" height="24"/>
			<polygon points="144,147.652 152.88,134.34 76.44,83.38 0,134.34 8.88,147.652 76.44,102.612 			"/>
			<rect x="460.44" y="100.996" width="16" height="152"/>
			<rect x="380.44" y="100.996" width="16" height="64"/>
			<polygon points="428.44,43.38 352,94.34 360.88,107.652 428.44,62.612 496,107.652 504.88,94.34 			"/>
			<rect x="28.44" y="316.996" width="16" height="16"/>
			<rect x="460.44" y="268.996" width="16" height="16"/>
			<rect x="460.44" y="300.996" width="16" height="16"/>
			<rect x="244.44" y="44.996" width="16" height="64"/>
			<rect x="244.44" y="124.996" width="16" height="16"/>
			<rect x="244.44" y="156.996" width="16" height="16"/>
		</g>
	</g>
</g>
<g>
</g>
<g>
</g>
<g>
</g>
<g>
</g>
<g>
</g>
<g>
</g>
<g>
</g>
<g>
</g>
<g>
</g>
<g>
</g>
<g>
</g>
<g>
</g>
<g>
</g>
<g>
</g>
<g>
</g>
</svg>
