<svg viewBox="0 1 511.9997 511" xmlns="http://www.w3.org/2000/svg"><path d="m248.007812 193.800781c3.910157 3.890625 10.230469 3.890625 14.132813-.011719 3.902344-3.902343 3.914063-10.222656 0-14.140624-3.902344-3.910157-10.230469-3.910157-14.140625 0-3.910156 3.902343-3.910156 10.230468 0 14.140624zm0 0"/><path d="m374.207031 138.292969c11.707031 11.703125 30.714844 11.722656 42.421875 0 11.714844-11.714844 11.710938-30.726563.003906-42.417969-11.699218-11.714844-30.710937-11.722656-42.421874-.007812-11.71875 11.703124-11.71875 30.710937-.003907 42.425781zm14.140625-28.28125c3.890625-3.890625 10.234375-3.90625 14.144532.007812 3.886718 3.882813 3.898437 10.226563-.011719 14.136719-3.855469 3.855469-10.203125 3.921875-14.132813-.003906-3.882812-3.886719-3.910156-10.234375 0-14.140625zm0 0"/><path d="m1.144531 317.925781c2.488281 4.929688 8.503907 6.90625 13.433594 4.417969l165.367187-83.476562 39.769532 39.769531-7.066406 7.070312c-3.90625 3.90625-3.90625 10.238281 0 14.140625 3.90625 3.90625 10.234374 3.90625 14.140624 0l7.070313-7.066406 40.644531 40.640625c-53.222656 104.015625-24.371094 48.015625-84.492187 164.488281-3.449219 6.691406 1.464843 14.585938 8.882812 14.585938 3.621094 0 7.117188-1.976563 8.894531-5.417969l31.011719-60.128906c5.710938 1.777343 11.625 2.6875 17.679688 2.6875 22.835937 0 43.378906-12.679688 53.609375-33.089844 4.597656-9.183594 10.253906-20.191406 16.078125-31.449219l42.039062 42.03125c3.90625 3.90625 10.238281 3.90625 14.140625 0 3.90625-3.90625 3.90625-10.238281 0-14.140625l-46.515625-46.511719 5.378907-10.359374c22.777343-43.824219 53.882812-103.683594 92.238281-180.265626 4.125-2.667968 7.972656-5.773437 11.46875-9.269531 19.226562-19.234375 25.421875-47.789062 16.433593-73.003906l41.855469-41.863281c11.722657-11.722656 11.726563-30.699219 0-42.421875-11.722656-11.722657-30.695312-11.726563-42.421875 0l-41.863281 41.855469c-25.210937-8.984376-53.769531-2.792969-73.003906 16.433593-3.5 3.5-6.605469 7.351563-9.269531 11.46875-76.613282 38.371094-136.488282 69.484375-180.324219 92.265625l-10.300781 5.355469-46.511719-46.519531c-3.902344-3.90625-10.234375-3.90625-14.140625 0-3.90625 3.902344-3.90625 10.234375 0 14.140625l42.03125 42.039062c-11.257813 5.824219-22.265625 11.480469-31.449219 16.082031-26.679687 13.363282-39.035156 44.117188-30.261719 71.730469l-60.125 30.347657c-4.929687 2.488281-6.910156 8.5-4.421875 13.433593zm291.0625 89.660157c-6.8125 13.601562-20.507812 22.050781-35.726562 22.050781-2.804688 0-5.566407-.289063-8.273438-.867188l125.371094-245.160156c10.121094 3.339844 21.066406 4.417969 32.222656 2.738281-33.207031 65.972656-107.648437 209.375-113.59375 221.238282zm182.71875-384.152344c3.910157-3.90625 10.230469-3.910156 14.136719 0 3.910156 3.90625 3.910156 10.226562 0 14.136718l-37.585938 37.59375c-1.996093-2.664062-4.175781-5.203124-6.558593-7.582031-2.382813-2.382812-4.921875-4.566406-7.585938-6.5625zm-114.867187 58.289062c19.320312-19.308594 51.015625-19.703125 70.714844 0 19.582031 19.582032 19.433593 51.273438 0 70.71875-19.613282 19.621094-51.175782 19.5-70.707032.003906-19.558594-19.597656-19.585937-51.148437-.007812-70.722656zm-255.148438 138.570313c11.871094-5.949219 155.207032-80.359375 221.238282-113.59375-1.632813 10.839843-.691407 21.988281 2.855468 32.554687l-41.855468 23.464844c-4.820313 2.699219-6.535157 8.792969-3.832032 13.613281 2.714844 4.839844 8.816406 6.519531 13.609375 3.832031l41.082031-23.03125c2.34375 3.351563 4.980469 6.515626 7.914063 9.457032 3.019531 3.011718 6.285156 5.714844 9.746094 8.109375l-71.597657 140.011719-36.070312-36.070313 7.066406-7.070313c3.90625-3.90625 3.90625-10.238281 0-14.140624-3.902344-3.90625-10.234375-3.90625-14.140625 0l-7.066406 7.066406-35.117187-35.113282c2.703124-1.363281-9.789063 4.941407 26.433593-13.339843 4.925781-2.496094 6.898438-8.511719 4.402344-13.441407-2.496094-4.925781-8.515625-6.894531-13.4375-4.402343-16.476563 8.316406-119.6875 60.414062-132.242187 66.753906-4.023438-17.546875 4.242187-36.261719 21.011718-44.660156zm0 0"/><path d="m.574219 364.40625c12.097656 34.28125 31.285156 64.722656 57.039062 90.484375 25.757813 25.75 56.199219 44.9375 90.476563 57.035156 5.203125 1.835938 10.917968-.882812 12.757812-6.101562 1.839844-5.207031-.890625-10.917969-6.101562-12.757813-31.441406-11.09375-59.363282-28.699218-82.992188-52.320312-23.621094-23.628906-41.226562-51.554688-52.324218-82.996094-1.835938-5.207031-7.550782-7.941406-12.757813-6.101562-5.207031 1.839843-7.9375 7.550781-6.097656 12.757812zm0 0"/></svg>