<?xml version="1.0" encoding="iso-8859-1"?>
<!-- Generator: Adobe Illustrator 19.0.0, SVG Export Plug-In . SVG Version: 6.00 Build 0)  -->
<svg version="1.1" id="Capa_1" xmlns="http://www.w3.org/2000/svg" xmlns:xlink="http://www.w3.org/1999/xlink" x="0px" y="0px"
	 viewBox="0 0 496 496" style="enable-background:new 0 0 496 496;" xml:space="preserve">
<g>
	<g>
		<g>
			<path d="M352,416v16h128v24c0,13.232-10.768,24-24,24H40c-13.232,0-24-10.768-24-24v-24h128v-16H0v40c0,22.056,17.944,40,40,40
				h416c22.056,0,40-17.944,40-40v-40H352z"/>
			<path d="M184,464h128c13.232,0,24-10.768,24-24v-24H160v24C160,453.232,170.768,464,184,464z M176,432h144v8c0,4.408-3.584,8-8,8
				H184c-4.416,0-8-3.592-8-8V432z"/>
			<rect x="48" y="448" width="16" height="16"/>
			<rect x="80" y="448" width="16" height="16"/>
			<rect x="112" y="448" width="16" height="16"/>
			<path d="M464,120v280h16V120c0-22.056-17.944-40-40-40h-24v16h24C453.232,96,464,106.768,464,120z"/>
			<path d="M32,120c0-13.232,10.768-24,24-24h24V80H56c-22.056,0-40,17.944-40,40v280h16V120z"/>
			<path d="M432,400h16V128c0-8.824-7.176-16-16-16h-16v16h16V400z"/>
			<path d="M48,128v272h16V128h16v-16H64C55.176,112,48,119.176,48,128z"/>
			<path d="M400,0H96v80h304V0z M384,64H112V16h272V64z"/>
			<polygon points="400,96 384,96 384,352 112,352 112,96 96,96 96,368 400,368 			"/>
			<rect x="128" y="32" width="16" height="16"/>
			<rect x="160" y="32" width="16" height="16"/>
			<rect x="192" y="32" width="16" height="16"/>
			<path d="M368,185.44l-31.44-6.288c-0.552-1.328-1.136-2.632-1.736-3.92l-14.488,6.816c1.048,2.224,1.984,4.496,2.832,6.824
				l1.528,4.232L352,198.56v34.88l-27.288,5.456l-1.528,4.232c-0.848,2.328-1.792,4.6-2.832,6.824l-1.92,4.088l15.448,23.168
				l-24.664,24.664l-23.168-15.448l-4.08,1.92c-2.224,1.04-4.496,1.976-6.824,2.824l-4.24,1.528L265.44,320h-34.88l-5.464-27.304
				l-4.24-1.528c-2.328-0.84-4.592-1.776-6.824-2.824l-4.08-1.92l-23.168,15.448l-29.304-29.304l-11.312,11.312l38.568,38.576
				l26.464-17.64L217.44,336h61.128l6.224-31.176l26.464,17.64l43.208-43.216l-17.64-26.456L368,246.56V185.44z"/>
			<path d="M128,246.56l31.44,6.288c0.552,1.328,1.136,2.632,1.736,3.92l14.488-6.816c-1.048-2.224-1.984-4.496-2.832-6.824
				l-1.528-4.232L144,233.44v-34.88l27.288-5.456l1.528-4.232c0.848-2.328,1.792-4.6,2.832-6.824l1.92-4.088l-15.448-23.168
				l24.664-24.664l23.168,15.448l4.08-1.92c2.224-1.04,4.496-1.976,6.824-2.824l4.24-1.528L230.56,112h34.872l5.464,27.304
				l4.24,1.528c2.328,0.84,4.592,1.776,6.824,2.824l4.08,1.92l23.168-15.448l29.304,29.304l11.312-11.312l-38.568-38.576
				l-26.464,17.64L278.56,96h-61.12l-6.224,31.176l-26.464-17.64l-43.208,43.216l17.64,26.456L128,185.44V246.56z"/>
			<path d="M248,152c-35.288,0-64,28.712-64,64c0,35.288,28.712,64,64,64c35.288,0,64-28.712,64-64C312,180.712,283.288,152,248,152
				z M248,264c-26.472,0-48-21.528-48-48s21.528-48,48-48s48,21.528,48,48S274.472,264,248,264z"/>
			<path d="M248,184c-17.648,0-32,14.352-32,32s14.352,32,32,32s32-14.352,32-32S265.648,184,248,184z M248,232
				c-8.824,0-16-7.176-16-16c0-8.824,7.176-16,16-16c8.824,0,16,7.176,16,16C264,224.824,256.824,232,248,232z"/>
		</g>
	</g>
</g>
<g>
</g>
<g>
</g>
<g>
</g>
<g>
</g>
<g>
</g>
<g>
</g>
<g>
</g>
<g>
</g>
<g>
</g>
<g>
</g>
<g>
</g>
<g>
</g>
<g>
</g>
<g>
</g>
<g>
</g>
</svg>
