<svg height="511pt" viewBox="0 0 511 511.99904" width="511pt" xmlns="http://www.w3.org/2000/svg"><path d="m282.414062 185.945312c-5.515624 0-9.996093 4.476563-9.996093 9.996094 0 5.519532 4.480469 9.996094 9.996093 9.996094 5.519532 0 10-4.476562 10-9.996094 0-5.519531-4.480468-9.996094-10-9.996094zm0 0"/><path d="m156.453125 255.921875c0-27.558594-22.421875-49.984375-49.984375-49.984375s-49.984375 22.425781-49.984375 49.984375c0 27.5625 22.421875 49.988281 49.984375 49.988281s49.984375-22.425781 49.984375-49.988281zm-79.976563 0c0-16.535156 13.453126-29.988281 29.992188-29.988281 16.535156 0 29.988281 13.453125 29.988281 29.988281 0 16.539063-13.453125 29.992187-29.988281 29.992187-16.539062 0-29.992188-13.453124-29.992188-29.992187zm0 0"/><path d="m176.445312 185.945312c27.5625 0 49.988282-22.425781 49.988282-49.984374 0-27.5625-22.425782-49.988282-49.988282-49.988282-27.558593 0-49.984374 22.425782-49.984374 49.988282 0 27.558593 22.425781 49.984374 49.984374 49.984374zm0-79.976562c16.539063 0 29.992188 13.453125 29.992188 29.992188 0 16.535156-13.453125 29.988281-29.992188 29.988281-16.535156 0-29.988281-13.453125-29.988281-29.988281 0-16.539063 13.453125-29.992188 29.988281-29.992188zm0 0"/><path d="m236.429688 405.878906c-16.539063 0-29.992188 13.453125-29.992188 29.992188 0 16.535156 13.453125 29.988281 29.992188 29.988281 16.535156 0 29.992187-13.453125 29.992187-29.988281 0-16.539063-13.457031-29.992188-29.992187-29.992188zm0 39.988282c-5.511719 0-9.996094-4.484376-9.996094-9.996094 0-5.515625 4.484375-10 9.996094-10 5.511718 0 9.996093 4.484375 9.996093 10 0 5.511718-4.484375 9.996094-9.996093 9.996094zm0 0"/><path d="m470.679688 4.449219c-1.855469-2.777344-4.976563-4.449219-8.316407-4.449219-3.34375 0-6.464843 1.671875-8.320312 4.453125l-28.890625 43.335937c-8.359375 12.535157-12.777344 27.097657-12.777344 42.183594 0 16.289063 7.914062 33.175782 20.1875 44.03125-24.195312 109.046875-27.382812 231.222656-4.164062 349.851563 3.171874 16.21875 17.453124 27.992187 33.964843 27.992187h.628907c16.128906 0 30.09375-11.5 33.203124-27.34375 23.226563-118.171875 20.222657-239.980468-3.640624-348.703125 12.363281-9.363281 19.792968-24.019531 19.792968-39.828125 0-13.976562-3.996094-35.011718-12.765625-48.175781zm-28.890626 54.429687 20.574219-30.859375 20.582031 30.867188c6.109376 9.171875 9.410157 25.953125 9.410157 37.085937 0 16.550782-13.421875 29.988282-29.992188 29.988282-16.222656 0-29.992187-19.171876-29.992187-36.058594 0-11.054688 3.257812-21.78125 9.417968-31.023438zm20.574219 87.078125c3.925781 0 7.828125-.480469 11.628907-1.386719 6.867187 32.195313 11.835937 65.414063 14.800781 99.015626-17.402344 3.089843-35.453125 3.089843-52.871094 0 2.980469-33.726563 7.972656-67.042969 14.871094-99.316407 3.792969 1.109375 7.679687 1.6875 11.570312 1.6875zm14.210938 334.691407c-1.273438 6.492187-6.984375 11.203124-13.582031 11.203124h-.628907c-6.96875 0-13.003906-4.976562-14.34375-11.835937-13.800781-70.507813-18.371093-143.257813-13.625-216.414063 9.222657 1.527344 18.585938 2.320313 27.96875 2.320313 9.378907 0 18.738281-.789063 27.957031-2.320313 4.761719 73.386719.152344 146.347657-13.746093 217.046876zm0 0"/><path d="m146.457031 325.902344c-22.050781 0-39.988281 17.9375-39.988281 39.988281s17.9375 39.988281 39.988281 39.988281c22.046875 0 39.988281-17.9375 39.988281-39.988281s-17.941406-39.988281-39.988281-39.988281zm0 59.980468c-11.027343 0-19.996093-8.96875-19.996093-19.992187s8.96875-19.992187 19.996093-19.992187c11.023438 0 19.992188 8.96875 19.992188 19.992187s-8.96875 19.992187-19.992188 19.992187zm0 0"/><path d="m349.46875 203.011719c28.875-28.878907 42.914062-59.316407 42.914062-93.042969 0-31.832031-10.933593-59.105469-31.617187-78.875-22.613281-21.625-60.304687-30.8125-92.457031-30.8125-69.230469-3.203125-141.097656 27.660156-190.601563 75-49.066406 46.929688-77.207031 111.574219-77.207031 180.640625 0 70.328125 28.636719 139.882813 76.601562 186.058594 47.503907 45.742187 108.5 61.339843 140.632813 66.566406 32.898437 5.351563 87.351563 7.125 111.574219-14.777344 29.820312-26.964843 30.886718-73.042969 2.574218-101.367187-.070312-.070313-.140624-.140625-.214843-.210938-31.207031-29.378906-46.503907-56.3125-46.769531-82.335937-.308594-30.199219 18.980468-62.132813 64.570312-106.84375zm-84.5625 107.046875c.320312 31.71875 17.640625 63.3125 52.9375 96.578125 20.167969 20.285156 19.289062 53.101562-1.945312 72.300781-11.425782 10.335938-46.015626 17.835938-94.953126 9.871094-50.761718-8.253906-98.136718-30.574219-129.976562-61.230469-44.128906-42.484375-70.476562-106.652344-70.476562-171.65625 0-63.359375 25.226562-122.382813 71.03125-166.191406 48.945312-46.800781 116.75-72.292969 176.09375-69.464844.359374.015625.503906.007813 1.164062.007813 31.933594 0 61.835938 9.65625 78.164062 25.273437 16.644532 15.90625 25.441407 38.183594 25.441407 64.421875 0 37.503906-21.148438 62.996094-36.988281 78.835938-36.886719 36.175781-70.957032 75.902343-70.492188 121.253906zm0 0"/><path d="m265.347656 221.945312c-4.621094-3.019531-10.816406-1.726562-13.839844 2.890626-18.167968 27.765624-26.867187 54.550781-26.59375 81.894531.214844 20.960937 5.925782 41.980469 16.972657 62.472656 2.613281 4.855469 8.671875 6.683594 13.542969 4.058594 4.859374-2.617188 6.675781-8.683594 4.054687-13.542969-9.625-17.859375-14.394531-35.257812-14.578125-53.1875-.230469-23.257812 7.398438-46.398438 23.332031-70.746094 3.023438-4.621094 1.726563-10.816406-2.890625-13.839844zm0 0"/><path d="m302.410156 85.972656c-16.539062 0-29.992187 13.457032-29.992187 29.992188 0 16.539062 13.453125 29.992187 29.992187 29.992187 16.535156 0 29.988282-13.453125 29.988282-29.992187 0-16.535156-13.453126-29.992188-29.988282-29.992188zm0 39.988282c-5.511718 0-9.996094-4.484376-9.996094-9.996094 0-5.511719 4.484376-9.996094 9.996094-9.996094 5.511719 0 9.996094 4.484375 9.996094 9.996094 0 5.511718-4.484375 9.996094-9.996094 9.996094zm0 0"/></svg>