<?xml version="1.0" encoding="iso-8859-1"?>
<!-- Generator: Adobe Illustrator 19.0.0, SVG Export Plug-In . SVG Version: 6.00 Build 0)  -->
<svg version="1.1" id="Capa_1" xmlns="http://www.w3.org/2000/svg" xmlns:xlink="http://www.w3.org/1999/xlink" x="0px" y="0px"
	 viewBox="0 0 496 496" style="enable-background:new 0 0 496 496;" xml:space="preserve">
<g>
	<g>
		<g>
			<path d="M96,64h128V48H96v-8c0-13.232,10.768-24,24-24h168c8.824,0,16,7.176,16,16h16c0-17.648-14.352-32-32-32H120
				C97.944,0,80,17.944,80,40v40h16V64z"/>
			<path d="M96,384v-24h32v-16H80v40c0,22.056,17.944,40,40,40h24v-16h-24C106.768,408,96,397.232,96,384z"/>
			<path d="M147.648,206.272C155.496,199.528,160,189.736,160,179.4c0-19.52-15.88-35.4-35.4-35.4h-1.256
				c-9.464,0-18.344,3.68-25.032,10.368L96,156.688l-2.32-2.32C87,147.68,78.112,144,68.656,144H67.4C47.88,144,32,159.88,32,179.4
				c0,10.336,4.504,20.136,12.36,26.88L96,250.536L147.648,206.272z M48,179.4c0-10.696,8.704-19.4,19.4-19.4h1.256
				c5.184,0,10.056,2.016,13.712,5.68L96,179.312l13.632-13.632c3.656-3.664,8.528-5.68,13.712-5.68h1.256
				c10.696,0,19.4,8.704,19.4,19.4c0,5.664-2.472,11.04-6.776,14.728L96,229.464l-41.224-35.328C50.472,190.44,48,185.064,48,179.4z
				"/>
			<path d="M192,192c0-52.936-43.064-96-96-96c-52.936,0-96,43.064-96,96c0,52.936,43.064,96,96,96C148.936,288,192,244.936,192,192
				z M16,192c0-44.112,35.888-80,80-80s80,35.888,80,80s-35.888,80-80,80S16,236.112,16,192z"/>
			<polygon points="240,48 240,144 256,144 256,64 480,64 480,264 440,264 440,280 496,280 496,48 			"/>
			<path d="M432,144c0-35.288-28.712-64-64-64c-35.288,0-64,28.712-64,64c0,19.448,8.896,37.808,24,49.92V200h-16v16h16h16h48v16h-8
				v16h24v-32h16v-16h-16v-6.08C423.104,181.808,432,163.448,432,144z M368,152c-4.408,0-8-3.584-8-8s3.592-8,8-8
				c4.408,0,8,3.584,8,8S372.408,152,368,152z M395.416,183.36L392,185.752V200h-16v-33.472c9.288-3.312,16-12.112,16-22.528
				c0-13.232-10.768-24-24-24s-24,10.768-24,24c0,10.416,6.712,19.216,16,22.528V200h-16v-14.248l-3.416-2.392
				C327.696,174.36,320,159.648,320,144c0-26.472,21.528-48,48-48s48,21.528,48,48C416,159.648,408.304,174.36,395.416,183.36z"/>
			<path d="M392,264c-9.6,0-18.128,4.336-24,11.056c-5.872-6.72-14.4-11.056-24-11.056c-9.6,0-18.128,4.336-24,11.056
				c-5.872-6.72-14.4-11.056-24-11.056c-5.856,0-11.272,1.696-16,4.448V192c0-17.648-14.352-32-32-32s-32,14.352-32,32v163.272
				c0,1.216-0.48,2.368-1.352,3.216c-0.872,0.856-2.224,1.168-3.232,1.296c-2.008-0.032-3.728-1.352-4.272-3.28l-10.952-38.784
				C192.576,304.928,180.768,296,167.48,296h-1.64c-16.456,0-29.84,13.384-29.84,29.832c0,1.976,0.192,3.952,0.584,5.848
				l10.312,51.568c3.744,18.752,13.952,35.856,28.736,48.184L200,451.752V496h192v-9.376c0-12.456,4.848-24.168,13.656-32.968
				C417.488,441.832,424,426.112,424,409.376V296C424,278.352,409.648,264,392,264z M408,409.376
				c0,12.456-4.848,24.168-13.656,32.968c-10.256,10.248-16.512,23.432-18,37.656H216v-35.752l-30.128-25.104
				c-11.984-9.992-20.256-23.848-23.296-39.032l-10.32-51.584c-0.168-0.888-0.256-1.784-0.256-2.696
				C152,318.2,158.208,312,165.832,312h1.64c6.168,0,11.64,4.144,13.32,10.072l10.952,38.792c2.488,8.776,10.28,14.776,19.4,14.928
				c5.656,0.08,10.776-1.992,14.72-5.88c3.96-3.896,6.136-9.088,6.136-14.64V192c0-8.824,7.176-16,16-16c8.824,0,16,7.176,16,16v104
				v16v16h16v-16v-16c0-8.824,7.176-16,16-16c8.824,0,16,7.176,16,16v32h16v-32c0-8.824,7.176-16,16-16c8.824,0,16,7.176,16,16v16
				v16h16v-16v-16c0-8.824,7.176-16,16-16c8.824,0,16,7.176,16,16V409.376z"/>
			<rect x="80" y="304" width="16" height="24"/>
		</g>
	</g>
</g>
<g>
</g>
<g>
</g>
<g>
</g>
<g>
</g>
<g>
</g>
<g>
</g>
<g>
</g>
<g>
</g>
<g>
</g>
<g>
</g>
<g>
</g>
<g>
</g>
<g>
</g>
<g>
</g>
<g>
</g>
</svg>
